<svg width="85" height="115" viewBox="0 0 85 115" fill="none" xmlns="http://www.w3.org/2000/svg">
<path d="M58.3861 16.8501L60.9777 14.2605C60.262 13.5451 60.2623 12.3861 60.978 11.671L68.8194 3.83534C67.9857 3.72132 67.1436 3.66248 66.297 3.66248C61.3496 3.66248 56.6994 5.58671 53.2025 9.0809C49.0485 13.2316 47.1617 18.9985 47.9499 24.6884L55.7943 16.8499C56.5103 16.1352 57.6707 16.1352 58.3861 16.8501Z" fill="#98D9D5"/>
<path d="M58.3861 16.8501C59.1018 17.5655 59.1018 18.7248 58.3861 19.4399L50.5444 27.2756C51.3782 27.3891 52.2204 27.4482 53.0669 27.4482C58.014 27.4482 62.6642 25.5237 66.1611 22.0295C70.3148 17.879 72.2017 12.1122 71.4136 6.42224L63.5693 14.2608C63.2115 14.6183 62.7424 14.797 62.2735 14.797C61.8046 14.797 61.3354 14.6183 60.9777 14.2608C60.9777 14.2603 58.3861 16.8501 58.3861 16.8501Z" fill="#6DA8D6"/>
<path d="M66.5325 41.2985C63.7361 40.1412 60.7976 39.5542 57.7989 39.5542C52.5434 39.5542 47.4016 41.3869 43.3205 44.7143C43.2366 44.781 43.1543 44.8366 43.068 44.8857C43.0614 44.8896 43.0553 44.8938 43.0487 44.8974C42.9669 44.9428 42.8806 44.9807 42.7919 45.0132C42.778 45.0183 42.7643 45.0237 42.7504 45.0285C42.6654 45.0574 42.5779 45.0801 42.4877 45.0962C42.4716 45.0991 42.4555 45.1011 42.4393 45.1035C42.3497 45.1172 42.2588 45.1262 42.1654 45.1265C42.065 45.1262 41.9738 45.1172 41.8844 45.1035C41.8683 45.1008 41.8522 45.0989 41.836 45.0962C41.7459 45.0801 41.6584 45.0574 41.5734 45.0285C41.5594 45.0237 41.5457 45.0185 41.5318 45.0132C41.4429 44.9807 41.3569 44.9428 41.275 44.8974C41.2684 44.8938 41.2623 44.8896 41.2557 44.8857C41.1694 44.8366 41.0871 44.781 41.0104 44.7189C36.9219 41.3869 31.7801 39.5542 26.5246 39.5542C23.5259 39.5542 20.5874 40.1409 17.791 41.2985C6.483 45.9791 0.880545 58.6471 5.03645 70.1388C6.23914 73.465 16.8219 94.1829 22.2499 104.673C24.3027 108.633 28.3579 111.093 32.8325 111.093C34.3963 111.093 35.9291 110.787 37.3886 110.183C38.6981 109.641 39.8856 108.883 40.918 107.93C41.2691 107.606 41.7156 107.444 42.1618 107.444C42.6082 107.444 43.0544 107.606 43.4055 107.93C44.4379 108.883 45.6252 109.641 46.9349 110.183C48.3941 110.787 49.9269 111.093 51.491 111.093C55.9661 111.093 60.0218 108.632 62.075 104.67C67.5021 94.1816 78.0844 73.4653 79.2871 70.1396C83.4432 58.6474 77.8408 45.9788 66.5325 41.2985ZM13.8484 58.9633C13.8379 58.9636 13.8277 58.965 13.8172 58.965C12.8051 58.965 11.9845 58.1454 11.9845 57.1338C11.9845 57.1233 11.986 57.1131 11.986 57.1026C12.0019 56.1567 12.7349 55.3864 13.6659 55.3102C13.7158 55.306 13.7658 55.3026 13.8169 55.3026C13.8631 55.3026 13.9083 55.3063 13.9535 55.3094C14.8564 55.3759 15.576 56.0952 15.6427 56.9973C15.6461 57.0427 15.6495 57.0877 15.6495 57.1338C15.6495 57.1848 15.6459 57.2349 15.642 57.2847C15.566 58.215 14.795 58.9474 13.8484 58.9633ZM22.9803 49.809C22.9803 49.8139 22.9795 49.8185 22.9795 49.8236C22.9722 50.7619 22.2592 51.5318 21.3444 51.6294C21.2796 51.6363 21.2141 51.6404 21.1477 51.6404C21.099 51.6404 21.0514 51.6368 21.004 51.6333C20.1248 51.565 19.4199 50.8779 19.3263 50.007C19.3192 49.9418 19.3153 49.8761 19.3153 49.8092C19.3153 49.7423 19.3194 49.6766 19.3263 49.6114C19.4245 48.698 20.1947 47.9861 21.1332 47.9785C21.1381 47.9785 21.1428 47.9778 21.1477 47.9778C22.1598 47.9778 22.9803 48.7974 22.9803 49.809ZM58.2891 93.8801C58.2019 93.8801 58.1166 93.872 58.0328 93.8601C57.383 93.769 56.8423 93.3393 56.5977 92.7538C56.5068 92.5367 56.4565 92.2989 56.4565 92.0489C56.4565 91.8306 56.4968 91.6221 56.5669 91.428C56.7961 90.7934 57.3647 90.3227 58.0545 90.2343C58.1315 90.2245 58.2094 90.2177 58.2891 90.2177C58.3155 90.2177 58.3414 90.2206 58.3675 90.2218C59.343 90.2631 60.1217 91.0639 60.1217 92.0489C60.1215 93.0605 59.3012 93.8801 58.2891 93.8801Z" fill="#F2484B"/>
<path d="M67.9351 37.9148C64.6918 36.5724 61.2814 35.8917 57.7989 35.8917C52.8601 35.8917 48.0091 37.2876 43.828 39.8686C43.0509 31.9116 39.5739 24.5321 33.8419 18.8048C33.1262 18.0899 31.9658 18.0896 31.2503 18.805C30.5346 19.5202 30.5346 20.6797 31.2503 21.3946C36.2341 26.3745 39.3104 32.7515 40.1156 39.6413C36.0215 37.2077 31.3151 35.8917 26.5246 35.8917C23.0421 35.8917 19.6317 36.5724 16.3885 37.9148C3.26688 43.3457 -3.23356 58.0469 1.58942 71.3832C3.17305 75.763 18.3489 105.108 18.9947 106.356C21.6806 111.537 26.9827 114.756 32.8325 114.756C34.8801 114.756 36.8848 114.356 38.791 113.567C39.9983 113.067 41.1269 112.426 42.1615 111.654C43.1961 112.426 44.3247 113.067 45.5318 113.567C47.438 114.356 49.4427 114.756 51.4906 114.756C57.3405 114.756 62.6439 111.536 65.3298 106.353C65.9751 105.106 81.15 75.7637 82.7336 71.3842C87.5576 58.0474 81.0571 43.3457 67.9351 37.9148ZM79.2868 70.1397C78.0841 73.4654 67.5018 94.1818 62.0748 104.67C60.0215 108.632 55.9661 111.094 51.4908 111.094C49.927 111.094 48.3941 110.787 46.9347 110.183C45.6252 109.641 44.4376 108.883 43.4053 107.93C43.0541 107.606 42.6079 107.444 42.1615 107.444C41.7153 107.444 41.2689 107.606 40.9178 107.93C39.8852 108.883 38.6979 109.642 37.3884 110.183C35.9294 110.787 34.3963 111.093 32.8325 111.093C28.3577 111.093 24.3025 108.633 22.2497 104.673C16.8219 94.1825 6.23915 73.4649 5.03622 70.1387C0.880313 58.647 6.48277 45.979 17.7908 41.2984C20.5871 40.1411 23.5257 39.5541 26.5243 39.5541C31.7798 39.5541 36.9217 41.3868 41.0031 44.7142C41.0869 44.7809 41.1692 44.8365 41.2555 44.8856C41.2621 44.8895 41.2682 44.8937 41.2748 44.8973C41.3566 44.9428 41.4429 44.9806 41.5316 45.0131C41.5455 45.0182 41.5592 45.0236 41.5731 45.0285C41.6582 45.0573 41.7456 45.08 41.8358 45.0961C41.8519 45.099 41.8681 45.101 41.8842 45.1034C41.9739 45.1171 42.0648 45.1261 42.1581 45.1264C42.2585 45.1261 42.3497 45.1171 42.4391 45.1034C42.4552 45.1007 42.4714 45.0988 42.4875 45.0961C42.5776 45.08 42.6651 45.0573 42.7502 45.0285C42.7641 45.0236 42.7778 45.0184 42.7917 45.0131C42.8806 44.9806 42.9666 44.9428 43.0485 44.8973C43.0551 44.8937 43.0612 44.8895 43.0678 44.8856C43.1541 44.8365 43.2364 44.7809 43.3131 44.7189C47.4016 41.3868 52.5435 39.5541 57.7989 39.5541C60.7976 39.5541 63.7361 40.1408 66.5325 41.2984C77.8408 45.9787 83.4432 58.6473 79.2868 70.1397Z" fill="#082947"/>
<path d="M15.643 56.9972C15.5763 56.095 14.8567 55.3757 13.9538 55.3093C13.9086 55.3059 13.8634 55.3025 13.8172 55.3025C13.7661 55.3025 13.7161 55.3062 13.6662 55.3101C12.7352 55.3862 12.0022 56.1566 11.9863 57.1025C11.9861 57.113 11.9848 57.1232 11.9848 57.1337C11.9848 58.1453 12.8054 58.9649 13.8175 58.9649C13.828 58.9649 13.8382 58.9635 13.8487 58.9632C14.7956 58.9473 15.5663 58.2149 15.6425 57.2846C15.6467 57.2348 15.6501 57.1847 15.6501 57.1337C15.6498 57.0878 15.6462 57.0424 15.643 56.9972Z" fill="#082947"/>
<path d="M21.1477 47.9777C21.1428 47.9777 21.1382 47.9784 21.133 47.9784C20.1945 47.9857 19.4243 48.6977 19.3261 49.6113C19.319 49.6765 19.3151 49.7422 19.3151 49.8091C19.3151 49.876 19.3192 49.9417 19.3261 50.0069C19.4196 50.8778 20.1246 51.5649 21.0038 51.6332C21.0514 51.6369 21.0991 51.6403 21.1474 51.6403C21.2139 51.6403 21.2796 51.6362 21.3441 51.6293C22.259 51.5319 22.9718 50.7618 22.9793 49.8235C22.9793 49.8184 22.9801 49.8138 22.9801 49.8089C22.9803 48.7973 22.1598 47.9777 21.1477 47.9777Z" fill="#082947"/>
<path d="M58.3673 90.2218C58.3412 90.2206 58.3155 90.2177 58.2889 90.2177C58.2092 90.2177 58.1313 90.2245 58.0543 90.2343C57.3642 90.3224 56.7959 90.7934 56.5667 91.428C56.4966 91.6221 56.4562 91.8303 56.4562 92.0489C56.4562 92.2986 56.5066 92.5367 56.5975 92.7538C56.8423 93.3393 57.3828 93.769 58.0325 93.8601C58.1166 93.872 58.2016 93.8801 58.2889 93.8801C59.301 93.8801 60.1215 93.0604 60.1215 92.0489C60.1215 91.0639 59.3428 90.2631 58.3673 90.2218Z" fill="#082947"/>
<path d="M45.1458 28.8618C45.1477 28.8682 45.1494 28.8748 45.1514 28.8811C45.1546 28.8911 45.1592 28.9002 45.1624 28.9099C45.18 28.9622 45.1995 29.0137 45.2218 29.0645C45.2296 29.0821 45.2376 29.0994 45.2459 29.1165C45.2674 29.1619 45.2911 29.2061 45.3166 29.2498C45.3266 29.2669 45.3364 29.2842 45.3469 29.3008C45.374 29.344 45.4035 29.3858 45.4346 29.4271C45.4453 29.4415 45.4551 29.4561 45.4661 29.47C45.5081 29.5228 45.5528 29.5738 45.6015 29.6224C45.6521 29.6729 45.7031 29.7176 45.7559 29.7599C45.7701 29.7711 45.7855 29.7813 45.8001 29.7923C45.8409 29.8228 45.8822 29.8521 45.925 29.8788C45.9421 29.8895 45.9599 29.8995 45.9775 29.9098C46.0205 29.9349 46.0645 29.9581 46.109 29.9794C46.1268 29.9879 46.1444 29.9962 46.1625 30.0043C46.2128 30.0265 46.2639 30.0458 46.3157 30.0631C46.3257 30.0665 46.3353 30.0712 46.3455 30.0746C46.3519 30.0765 46.3582 30.0782 46.3646 30.0802C46.3729 30.0826 46.3814 30.0853 46.39 30.0875C48.55 30.7656 50.7961 31.1106 53.0668 31.1106C58.9928 31.1106 64.564 28.8052 68.7529 24.6193C74.6231 18.7538 76.7172 10.1945 74.2248 2.27241C74.2226 2.26435 74.2202 2.25654 74.2178 2.24848C74.2158 2.24213 74.2141 2.23554 74.2121 2.22919C74.209 2.21943 74.2043 2.21039 74.2011 2.20063C74.1836 2.14813 74.1638 2.09637 74.1415 2.04558C74.134 2.02825 74.1259 2.01116 74.1176 1.99407C74.0958 1.94865 74.0721 1.90421 74.0465 1.86027C74.0365 1.84342 74.0269 1.82608 74.0164 1.80972C73.989 1.76626 73.9595 1.72402 73.9282 1.68252C73.9177 1.6686 73.9082 1.65419 73.8972 1.64052C73.8549 1.58729 73.8097 1.53577 73.7606 1.4867C73.7115 1.43762 73.6599 1.3927 73.6069 1.35021C73.5932 1.33923 73.5785 1.3297 73.5646 1.3192C73.5233 1.28795 73.4813 1.25841 73.4378 1.23131C73.4209 1.22056 73.4036 1.21104 73.3865 1.20103C73.343 1.17564 73.299 1.1522 73.254 1.13071C73.2365 1.12241 73.2189 1.11411 73.2008 1.10605C73.1507 1.08408 73.0999 1.06479 73.0483 1.04745C73.0378 1.04403 73.0283 1.03915 73.0178 1.03573C73.0112 1.03354 73.0046 1.03183 72.9982 1.03012C72.9901 1.02768 72.9823 1.02523 72.9743 1.02304C70.8142 0.344756 68.5679 0 66.2969 0C60.3707 0 54.8 2.30513 50.6109 6.49127C44.7406 12.357 42.6463 20.9161 45.1387 28.8379C45.1411 28.8462 45.1436 28.854 45.1458 28.8618ZM53.2027 9.08085C56.6996 5.58666 61.3498 3.66242 66.2969 3.66242C67.1436 3.66242 67.9856 3.72126 68.8191 3.83504L60.9777 11.6707C60.262 12.3861 60.262 13.5451 60.9774 14.2602C61.3354 14.6179 61.8043 14.7967 62.2735 14.7967C62.7426 14.7967 63.2115 14.6179 63.5692 14.2605L71.4136 6.42193C72.2016 12.1119 70.3148 17.8787 66.1611 22.0292C62.6639 25.5237 58.0137 27.4479 53.0668 27.4479C52.2202 27.4479 51.3781 27.3888 50.5444 27.2753L58.3861 19.4396C59.1018 18.7242 59.1018 17.565 58.3861 16.8498C57.6706 16.1349 56.5102 16.1349 55.7945 16.8498L47.9502 24.6884C47.1619 18.9987 49.0488 13.2316 53.2027 9.08085Z" fill="#082947"/>
</svg>
