<svg width="115" height="115" viewBox="0 0 115 115" fill="none" xmlns="http://www.w3.org/2000/svg">
<path d="M31.2323 75.3506C32.9254 70.128 33.8645 64.7064 34.0357 59.2091H3.72511C4.16983 72.3477 9.39574 85.3532 19.4104 95.3604C19.5319 95.4817 19.656 95.5991 19.7784 95.7193C23.3598 91.5282 26.336 86.9092 28.6339 81.962C29.0564 81.0523 30.1308 80.654 31.0437 81.062C31.5243 79.9399 31.9698 78.8004 32.383 77.6465C31.4383 77.3237 30.9235 76.3031 31.2323 75.3506Z" fill="#F2484B"/>
<path d="M34.0345 55.5464C33.6135 42.202 28.6012 29.367 19.7774 19.037C19.655 19.1571 19.5309 19.2746 19.4094 19.3959C9.39501 29.4026 4.16934 42.4079 3.72511 55.5464H34.0345ZM19.4253 32.773C20.0755 32.773 20.6441 33.1112 20.9694 33.6198C21.1519 33.9045 21.2589 34.2421 21.2589 34.6052C21.2589 35.6165 20.4384 36.4364 19.4263 36.4364C19.0466 36.4364 18.694 36.3209 18.4013 36.1234C17.9135 35.7948 17.5925 35.2376 17.5925 34.6042C17.5927 33.5932 18.4137 32.773 19.4253 32.773Z" fill="#F2484B"/>
<path d="M83.7759 33.6833C82.8578 33.2575 82.4591 32.1688 82.8852 31.2515C85.3424 25.9615 88.5287 21.0272 92.3655 16.5559C83.0949 8.60747 71.531 4.1044 59.2529 3.69666V55.5465H77.141C77.3133 49.6647 78.3129 43.8632 80.1243 38.2755C80.4361 37.3135 81.4692 36.7854 82.4324 37.0979C82.4419 37.1011 82.4507 37.1053 82.4603 37.1084C82.8737 35.9545 83.3189 34.815 83.7998 33.6929C83.7917 33.6892 83.7837 33.687 83.7759 33.6833Z" fill="#F2484B"/>
<path d="M77.1418 59.2089H59.2529V111.058C71.5307 110.652 83.0941 106.148 92.3655 98.1973C82.9201 87.1873 77.5647 73.4718 77.1418 59.2089ZM70.3398 90.6417C70.2782 90.6481 70.2157 90.6512 70.1524 90.6512C69.9627 90.6512 69.7797 90.6224 69.6075 90.569C69.0951 90.4098 68.6797 90.0316 68.4693 89.5445C68.3733 89.322 68.3195 89.0774 68.3195 88.82C68.3195 88.6306 68.3483 88.4477 68.4021 88.2755C68.634 87.5301 69.3299 86.9888 70.1524 86.9888C71.1645 86.9888 71.985 87.8087 71.985 88.82C71.9852 89.7684 71.2639 90.548 70.3398 90.6417ZM77.4829 97.9761C77.3116 97.9761 77.1464 97.9507 76.989 97.9067C76.4659 97.7605 76.038 97.3889 75.8162 96.9025C75.7106 96.6713 75.6502 96.4152 75.6502 96.1446C75.6502 95.9393 75.6857 95.7425 75.7482 95.5581C75.9931 94.8349 76.6765 94.3134 77.4831 94.3134C78.4952 94.3134 79.3157 95.1333 79.3157 96.1446C79.3157 97.0927 78.5944 97.8728 77.6703 97.9663C77.6085 97.9729 77.5462 97.9761 77.4829 97.9761Z" fill="#F2484B"/>
<path d="M22.4782 98.1985C31.7469 106.145 43.3096 110.648 55.5877 111.058V59.2089H37.7025C37.5299 65.0905 36.5306 70.8917 34.7192 76.4791C34.4682 77.2536 33.7494 77.7463 32.9762 77.7463C32.7891 77.7463 32.599 77.7175 32.4111 77.6567C32.4015 77.6535 32.3925 77.6494 32.383 77.646C31.9698 78.7999 31.5243 79.9394 31.0437 81.0616C31.0517 81.0652 31.0598 81.0677 31.0676 81.0713C31.9856 81.4971 32.3844 82.5859 31.9583 83.5032C29.5011 88.7934 26.315 93.7277 22.4782 98.1985Z" fill="#FF6E1D"/>
<path d="M37.702 55.5464H55.5876V3.69678C43.3108 4.1055 31.7479 8.60882 22.478 16.557C31.9236 27.5675 37.279 41.2835 37.702 55.5464Z" fill="#FF6E1D"/>
<path d="M80.809 59.2089C81.23 72.5528 86.2423 85.3876 95.0658 95.7171C95.1875 95.5977 95.3111 95.4807 95.4321 95.3599C105.447 85.3527 110.673 72.3472 111.118 59.2086H80.809V59.2089Z" fill="#FF6E1D"/>
<path d="M95.0655 19.0356C91.4839 23.2267 88.5079 27.8457 86.2098 32.7932C85.8995 33.4609 85.2376 33.854 84.5463 33.854C84.2961 33.854 84.0424 33.8013 83.7998 33.6929C83.3189 34.8151 82.8737 35.9548 82.4603 37.1085C83.4049 37.431 83.92 38.4518 83.6112 39.4043C81.9181 44.6272 80.9788 50.049 80.8077 55.5466H111.118C110.674 42.4077 105.449 29.402 95.4343 19.3953C95.3126 19.2737 95.1882 19.156 95.0655 19.0356Z" fill="#FF6E1D"/>
<path d="M114.843 57.3996C114.843 57.3923 114.844 57.385 114.844 57.3777C114.844 57.3703 114.843 57.3633 114.843 57.3562C114.838 42.0377 108.866 27.6374 98.0263 16.8051C87.1811 5.96901 72.7625 0.000732484 57.4256 0C42.9394 0.00268577 29.2853 5.32174 18.6798 15.0291C18.6752 15.0333 18.67 15.0367 18.6652 15.0411C18.6576 15.0479 18.6512 15.0555 18.6439 15.0623C18.0252 15.6295 17.4151 16.2091 16.8176 16.8064C5.9746 27.641 0.00219915 42.0461 0 57.3684C0.0024435 72.7095 5.97509 87.1146 16.8186 97.95C27.6624 108.785 42.0819 114.753 57.421 114.755C71.8978 114.755 85.5513 109.437 96.1578 99.7306C96.1644 99.7248 96.1717 99.7199 96.1783 99.7138C96.1883 99.7045 96.1969 99.6945 96.2069 99.6852C96.8224 99.1207 97.4294 98.544 98.0237 97.9502C108.864 87.1177 114.837 72.7176 114.843 57.3996ZM95.0658 95.7174C86.2423 85.3876 81.23 72.553 80.809 59.2091H111.118C110.673 72.3477 105.447 85.3532 95.4321 95.3604C95.3111 95.481 95.1875 95.598 95.0658 95.7174ZM31.0676 81.0716C31.0598 81.0679 31.0515 81.0655 31.0437 81.0618C30.1308 80.6536 29.0564 81.052 28.6339 81.9618C26.3358 86.909 23.3598 91.528 19.7784 95.7191C19.656 95.5989 19.5319 95.4815 19.4104 95.3601C9.3955 85.3532 4.16959 72.3475 3.72511 59.2089H34.036C33.8647 64.7064 32.9257 70.128 31.2326 75.3504C30.9237 76.3029 31.4385 77.3235 32.383 77.646C32.3925 77.6494 32.4013 77.6536 32.4111 77.6567C32.599 77.7175 32.7891 77.7463 32.9762 77.7463C33.7494 77.7463 34.4682 77.2534 34.7192 76.4791C36.5306 70.8918 37.5302 65.0902 37.7025 59.2089H55.5876V111.058C43.3098 110.648 31.7469 106.145 22.4782 98.1985C26.315 93.7274 29.5011 88.7932 31.9583 83.5034C32.3844 82.5864 31.9856 81.4976 31.0676 81.0716ZM19.7774 19.0373C28.6014 29.3672 33.6137 42.2021 34.0345 55.5467H3.72487C4.16934 42.4081 9.39501 29.4029 19.4092 19.3962C19.5309 19.2748 19.655 19.1571 19.7774 19.0373ZM55.5876 55.5465H37.702C37.279 41.2833 31.9236 27.5675 22.478 16.5568C31.7479 8.60864 43.3108 4.10533 55.5876 3.6966V55.5465ZM59.2529 59.2089H77.1417C77.565 73.4716 82.9201 87.1871 92.3655 98.1975C83.0941 106.148 71.5307 110.652 59.2529 111.059V59.2089ZM80.8077 55.5465C80.9788 50.0487 81.9181 44.6268 83.6112 39.4042C83.92 38.4517 83.4052 37.4309 82.4603 37.1084C82.4507 37.1052 82.4419 37.101 82.4324 37.0979C81.4692 36.7856 80.4361 37.3135 80.1243 38.2755C78.3127 43.8631 77.3133 49.6646 77.141 55.5465H59.2529V3.6966C71.531 4.10435 83.0951 8.60742 92.3655 16.5558C88.5287 21.0269 85.3424 25.9612 82.8852 31.2514C82.4591 32.1687 82.8578 33.2575 83.7758 33.6833C83.7837 33.6869 83.7917 33.6891 83.7998 33.6928C84.0424 33.8012 84.2961 33.8539 84.5463 33.8539C85.2376 33.8539 85.8995 33.4611 86.2098 32.7931C88.5079 27.8456 91.4841 23.2266 95.0655 19.0356C95.1882 19.1559 95.3126 19.2736 95.4343 19.3952C105.449 29.4022 110.674 42.4076 111.118 55.5465H80.8077Z" fill="#082947"/>
<path d="M19.4263 32.774C18.4142 32.774 17.5937 33.5939 17.5937 34.6053C17.5937 35.2371 17.914 35.7943 18.4013 36.1235C18.6937 36.3212 19.0466 36.4365 19.4263 36.4365C20.4384 36.4365 21.2589 35.6166 21.2589 34.6053C21.2589 34.2422 21.1519 33.9045 20.9694 33.6198C20.6437 33.1117 20.0751 32.774 19.4263 32.774Z" fill="#082947"/>
<path d="M70.1526 86.9889C69.3301 86.9889 68.6345 87.5302 68.4023 88.2756C68.3488 88.4475 68.32 88.6304 68.32 88.8199C68.32 89.0774 68.3737 89.3221 68.4695 89.5443C68.6799 90.0314 69.0953 90.4093 69.6077 90.5688C69.78 90.6222 69.963 90.6511 70.1526 90.6511C70.2159 90.6511 70.2785 90.6479 70.34 90.6415C71.2642 90.5478 71.9852 89.7679 71.9852 88.8199C71.9852 87.8088 71.1647 86.9889 70.1526 86.9889Z" fill="#082947"/>
<path d="M79.3157 96.1449C79.3157 95.1336 78.4952 94.3137 77.4831 94.3137C76.6765 94.3137 75.9931 94.835 75.7482 95.5585C75.6859 95.7428 75.6505 95.9396 75.6505 96.1449C75.6505 96.4155 75.7108 96.6716 75.8162 96.9028C76.038 97.3892 76.4659 97.7608 76.989 97.907C77.1464 97.951 77.3116 97.9764 77.4831 97.9764C77.5464 97.9764 77.6087 97.9732 77.6703 97.9669C78.5944 97.8731 79.3157 97.0932 79.3157 96.1449Z" fill="#082947"/>
</svg>
