<svg width="115" height="88" viewBox="0 0 115 88" fill="none" xmlns="http://www.w3.org/2000/svg">
<path d="M94.0747 70.0868H79.4137V76.1908H94.0747V70.0868Z" fill="white"/>
<path d="M9.92227 7.32514H104.922L108.587 3.66272H6.25702L9.92227 7.32514Z" fill="#F2EBD9"/>
<path d="M75.7484 76.1907V72.5283H9.92227L6.25702 76.1907H75.7484Z" fill="#F2EBD9"/>
<path d="M104.922 72.5283H97.74V76.1907H108.587L104.922 72.5283Z" fill="#F2EBD9"/>
<path d="M7.3305 69.9386V9.91498L3.66525 6.25256V73.6011L7.3305 69.9386Z" fill="#FFCC75"/>
<path d="M107.514 9.91498V69.9386L111.179 73.6011V6.25256L107.514 9.91498Z" fill="#FFCC75"/>
<path d="M101.405 79.8531H13.4392V83.5156H101.405V79.8531Z" fill="#FFCC75"/>
<path d="M75.7485 68.2556C75.7485 67.2443 76.5688 66.4244 77.5811 66.4244H95.9073C96.9197 66.4244 97.74 67.2443 97.74 68.2556V68.866H103.849V10.9875H10.9958V68.866H75.7485V68.2556ZM43.8359 48.917C44.4001 49.7567 44.1758 50.8945 43.3352 51.458C43.022 51.6682 42.6669 51.7688 42.3158 51.7688C41.7254 51.7688 41.1461 51.4844 40.7925 50.9577L35.592 43.2132L30.3913 50.9577C30.0377 51.4844 29.4583 51.7688 28.868 51.7688C28.5169 51.7688 28.1618 51.6682 27.8486 51.458C27.0083 50.8945 26.7839 49.757 27.3479 48.917L33.3851 39.9268L27.3479 30.9365C26.7837 30.0968 27.008 28.959 27.8486 28.3955C28.6886 27.8318 29.8276 28.0561 30.3913 28.8958L35.592 36.6404L40.7928 28.8958C41.3567 28.0559 42.4956 27.832 43.3355 28.3955C44.1758 28.959 44.4001 30.0966 43.8361 30.9365L37.7987 39.9268L43.8359 48.917ZM64.7527 41.5978H59.2549V47.0914C59.2549 48.1028 58.4346 48.9227 57.4222 48.9227C56.4099 48.9227 55.5896 48.1028 55.5896 47.0914V41.5978H50.0917C49.0794 41.5978 48.2591 40.7779 48.2591 39.7666C48.2591 38.7553 49.0794 37.9354 50.0917 37.9354H55.5896V32.4418C55.5896 31.4304 56.4099 30.6106 57.4222 30.6106C58.4346 30.6106 59.2549 31.4304 59.2549 32.4418V37.9354H64.7527C65.7651 37.9354 66.5854 38.7553 66.5854 39.7666C66.5854 40.7779 65.7651 41.5978 64.7527 41.5978ZM71.509 28.3955C72.3491 27.832 73.488 28.0561 74.0517 28.8958L79.2942 36.7026L84.4456 28.907C85.0035 28.063 86.1404 27.8308 86.9849 28.388C87.8294 28.9451 88.062 30.0812 87.5044 30.925L81.1393 40.5572V49.9374C81.1393 50.9487 80.3191 51.7686 79.3067 51.7686C78.2944 51.7686 77.4741 50.9487 77.4741 49.9374V40.5648L71.0086 30.9365C70.4444 30.0966 70.6687 28.959 71.509 28.3955Z" fill="#6DA8D6"/>
<path d="M43.3354 28.3955C42.4953 27.8319 41.3564 28.0558 40.7927 28.8957L35.592 36.6403L30.3912 28.8957C29.8273 28.0561 28.6886 27.8317 27.8485 28.3955C27.0082 28.959 26.7839 30.0965 27.3478 30.9364L33.385 39.9267L27.3478 48.917C26.7836 49.7566 27.008 50.8944 27.8485 51.458C28.1618 51.6682 28.5168 51.7688 28.868 51.7688C29.4583 51.7688 30.0377 51.4843 30.3912 50.9577L35.592 43.2131L40.7927 50.9577C41.1463 51.4843 41.7256 51.7688 42.316 51.7688C42.6671 51.7688 43.0222 51.6682 43.3354 51.458C44.1757 50.8944 44.4001 49.7569 43.8361 48.917L37.7987 39.9267L43.8358 30.9364C44.4001 30.0965 44.1757 28.959 43.3354 28.3955Z" fill="white"/>
<path d="M77.4742 40.5648V49.9374C77.4742 50.9487 78.2944 51.7686 79.3068 51.7686C80.3191 51.7686 81.1394 50.9487 81.1394 49.9374V40.5575L87.5045 30.9253C88.0621 30.0812 87.8294 28.9454 86.985 28.3882C86.1405 27.8311 85.0038 28.0632 84.4457 28.9073L79.2943 36.7029L74.0518 28.8961C73.4878 28.0564 72.3492 27.8323 71.5091 28.3958C70.6688 28.9593 70.4445 30.0969 71.0084 30.9368L77.4742 40.5648Z" fill="white"/>
<path d="M64.7527 37.9353H59.2548V32.4417C59.2548 31.4304 58.4346 30.6105 57.4222 30.6105C56.4099 30.6105 55.5896 31.4304 55.5896 32.4417V37.9353H50.0917C49.0794 37.9353 48.2591 38.7552 48.2591 39.7665C48.2591 40.7778 49.0794 41.5977 50.0917 41.5977H55.5896V47.0914C55.5896 48.1027 56.4099 48.9226 57.4222 48.9226C58.4346 48.9226 59.2548 48.1027 59.2548 47.0914V41.5977H64.7527C65.7651 41.5977 66.5853 40.7778 66.5853 39.7665C66.5853 38.7552 65.7651 37.9353 64.7527 37.9353Z" fill="white"/>
<path d="M114.48 79.1139C114.499 79.089 114.518 79.0648 114.535 79.0392C114.553 79.0121 114.569 78.984 114.586 78.9562C114.6 78.9327 114.615 78.9098 114.628 78.8854C114.643 78.8573 114.656 78.8282 114.669 78.7994C114.681 78.774 114.694 78.7491 114.705 78.723C114.716 78.6947 114.726 78.6659 114.736 78.6373C114.746 78.6097 114.756 78.5824 114.765 78.554C114.774 78.525 114.78 78.4954 114.788 78.4659C114.795 78.4373 114.803 78.4092 114.809 78.3802C114.816 78.3458 114.82 78.3109 114.825 78.2759C114.828 78.2515 114.833 78.2276 114.835 78.2029C114.841 78.1421 114.844 78.0813 114.844 78.0203V1.83268C114.844 1.77164 114.841 1.71084 114.835 1.65004C114.833 1.62538 114.828 1.60145 114.825 1.57704C114.82 1.54212 114.816 1.50745 114.809 1.47278C114.803 1.44373 114.795 1.41565 114.788 1.38708C114.78 1.35754 114.774 1.32799 114.765 1.29894C114.756 1.27062 114.746 1.24327 114.736 1.21568C114.726 1.18711 114.716 1.15806 114.705 1.12998C114.694 1.10385 114.681 1.07895 114.669 1.05356C114.656 1.02475 114.643 0.995935 114.628 0.967612C114.615 0.94344 114.6 0.920488 114.586 0.896805C114.569 0.86897 114.554 0.840892 114.535 0.81379C114.518 0.787909 114.499 0.763737 114.48 0.739077C114.463 0.716125 114.447 0.692442 114.429 0.670224C114.393 0.626763 114.355 0.585255 114.316 0.545213C114.259 0.4893 114.217 0.450966 114.173 0.41483C114.152 0.397495 114.13 0.382357 114.108 0.365998C114.082 0.346465 114.056 0.3262 114.029 0.308132C114.003 0.290796 113.976 0.275658 113.949 0.259543C113.925 0.244894 113.901 0.229512 113.875 0.216083C113.848 0.201434 113.819 0.188981 113.791 0.175796C113.765 0.163588 113.74 0.150403 113.713 0.139416C113.685 0.12794 113.657 0.118906 113.629 0.108896C113.601 0.098641 113.573 0.0876544 113.544 0.0788646C113.515 0.0703189 113.487 0.0642147 113.459 0.057134C113.429 0.0498092 113.4 0.0415075 113.37 0.0354035C113.337 0.0288112 113.303 0.0249045 113.27 0.0202654C113.244 0.016603 113.219 0.0117204 113.193 0.0090346C113.132 0.00317472 113.071 0 113.011 0H1.83311C1.77251 0 1.71192 0.00317472 1.65132 0.0090346C1.62517 0.0114762 1.59976 0.016603 1.57386 0.0202654C1.54063 0.0249045 1.50715 0.0290553 1.47416 0.0354035C1.44411 0.0412634 1.41479 0.049565 1.38522 0.057134C1.35688 0.0642147 1.32853 0.0705631 1.30043 0.0788646C1.27135 0.0876544 1.24325 0.098641 1.21466 0.108896C1.18681 0.119151 1.15871 0.128429 1.1311 0.139905C1.10446 0.150892 1.0788 0.163832 1.0529 0.176285C1.0248 0.189469 0.996459 0.201922 0.968847 0.216815C0.943679 0.230244 0.919733 0.245627 0.895054 0.260276C0.868175 0.276147 0.841297 0.291284 0.815151 0.308864C0.788028 0.326932 0.762372 0.347198 0.736471 0.366731C0.714723 0.38309 0.692243 0.398227 0.670985 0.415563C0.627002 0.451698 0.584729 0.490032 0.544167 0.530075C0.488944 0.585988 0.45107 0.627495 0.415395 0.670956C0.397069 0.693174 0.380942 0.716858 0.363837 0.73981C0.345266 0.764714 0.325963 0.788886 0.308858 0.814523C0.290776 0.841625 0.274894 0.869703 0.258278 0.897538C0.24435 0.920733 0.229689 0.943684 0.216738 0.967856C0.201589 0.996179 0.188638 1.02523 0.175199 1.05429C0.163226 1.07944 0.150764 1.10434 0.140013 1.12998C0.128284 1.1583 0.118754 1.18736 0.108491 1.21617C0.0987174 1.24376 0.087966 1.27086 0.0794137 1.29894C0.0706171 1.32799 0.0640197 1.35754 0.0566892 1.38708C0.049603 1.41565 0.0415395 1.44373 0.0356751 1.47278C0.0288333 1.50721 0.0246793 1.54212 0.0197923 1.57704C0.0163714 1.60145 0.0117288 1.62538 0.0092853 1.65004C0.00317655 1.71084 0 1.77188 0 1.83268V78.0208C0 78.0818 0.00317655 78.1426 0.0092853 78.2034C0.0117288 78.2281 0.0163714 78.252 0.0197923 78.2764C0.0246793 78.3113 0.0288333 78.346 0.0356751 78.3807C0.0412951 78.4097 0.0493587 78.4378 0.0566892 78.4664C0.0640197 78.4959 0.0706171 78.5255 0.0794137 78.5545C0.087966 78.5826 0.098473 78.61 0.108491 78.6373C0.118754 78.6661 0.128284 78.6952 0.140013 78.7235C0.150764 78.7494 0.163226 78.774 0.175199 78.7992C0.188638 78.828 0.201589 78.8573 0.216738 78.8856C0.229689 78.9098 0.244594 78.9327 0.258522 78.9564C0.275138 78.9842 0.290776 79.0123 0.309103 79.0394C0.326451 79.0653 0.345511 79.0895 0.364081 79.1141C0.381186 79.1371 0.397069 79.1608 0.415639 79.183C0.451314 79.2265 0.489189 79.268 0.528773 79.308C0.584974 79.3639 0.627246 79.4023 0.671229 79.4384C0.692243 79.4557 0.714479 79.4709 0.736226 79.487C0.762372 79.5065 0.788028 79.527 0.815396 79.5451C0.841052 79.5622 0.867687 79.5771 0.894076 79.5927C0.919 79.6076 0.943679 79.6232 0.969336 79.6371C0.996215 79.6515 1.02358 79.6635 1.05095 79.6764C1.07783 79.6891 1.10422 79.7026 1.13183 79.714C1.15846 79.725 1.18559 79.7338 1.21271 79.7436C1.24203 79.7541 1.27111 79.7653 1.30116 79.7746C1.32829 79.7829 1.35614 79.7888 1.38351 79.7958C1.41405 79.8034 1.44386 79.812 1.4749 79.8181C1.50666 79.8244 1.53892 79.8281 1.57093 79.8327C1.59805 79.8366 1.62468 79.8418 1.65229 79.8444C1.7124 79.8503 1.77276 79.8535 1.83311 79.8535H9.774V85.3471C9.774 86.3584 10.5943 87.1783 11.6066 87.1783H103.238C104.25 87.1783 105.07 86.3584 105.07 85.3471V79.8535H113.012C113.072 79.8535 113.133 79.8503 113.193 79.8444C113.22 79.8418 113.247 79.8366 113.274 79.8327C113.306 79.8281 113.338 79.8244 113.37 79.8181C113.401 79.812 113.431 79.8034 113.461 79.7958C113.489 79.789 113.517 79.7829 113.544 79.7746C113.574 79.7656 113.603 79.7543 113.632 79.7436C113.659 79.7338 113.686 79.725 113.713 79.714C113.741 79.7026 113.767 79.6891 113.794 79.6764C113.822 79.6635 113.849 79.6515 113.876 79.6371C113.901 79.6235 113.926 79.6076 113.951 79.5927C113.977 79.5771 114.004 79.5622 114.03 79.5451C114.057 79.5268 114.083 79.5065 114.109 79.487C114.13 79.4709 114.153 79.4557 114.174 79.4384C114.218 79.4023 114.26 79.3639 114.301 79.3239C114.356 79.268 114.394 79.2265 114.429 79.183C114.447 79.1605 114.463 79.1371 114.48 79.1139ZM13.4392 83.5156V79.8532H101.405V83.5156H13.4392ZM97.74 76.1908V72.5284H104.922L108.587 76.1908H97.74ZM79.4137 76.1908V70.0868H94.0747V76.1908H79.4137ZM10.9957 68.866V10.9875H103.849V68.866H97.74V68.2556C97.74 67.2442 96.9197 66.4243 95.9073 66.4243H77.5811C76.5688 66.4243 75.7485 67.2442 75.7485 68.2556V68.866H10.9957ZM104.922 7.32509H9.92232L6.25707 3.66266H108.587L104.922 7.32509ZM7.3305 9.91491V69.9386L3.66525 73.601V6.25248L7.3305 9.91491ZM107.514 69.9386V9.91491L111.179 6.25248V73.601L107.514 69.9386ZM9.92232 72.5284H75.7485V76.1908H6.25707L9.92232 72.5284Z" fill="#082947"/>
</svg>
