<svg width="115" height="115" viewBox="0 0 115 115" fill="none" xmlns="http://www.w3.org/2000/svg">
<path d="M67.819 33.8558C66.8753 34.1019 65.894 34.2294 64.9005 34.2294C62.8685 34.2294 60.9288 33.7052 59.2668 32.7556V98.2758C59.2668 99.2871 58.4462 100.107 57.4341 100.107C56.422 100.107 55.6015 99.2871 55.6015 98.2758V32.7556C53.9397 33.7049 51.9998 34.2294 49.9678 34.2294C48.974 34.2294 47.993 34.1022 47.0493 33.8558V112.926H55.6015V105.601C55.6015 104.589 56.422 103.769 57.4341 103.769C58.4462 103.769 59.2668 104.589 59.2668 105.601V112.926H67.819V33.8558Z" fill="#FFCC75"/>
<path d="M55.0923 12.2091H59.7758L57.4342 6.59338L55.0923 12.2091Z" fill="#274B6D"/>
<path d="M64.9003 30.5668C65.7179 30.5668 66.5198 30.4398 67.2776 30.1993L61.303 15.8712H53.5651L47.5905 30.1993C48.348 30.4398 49.1502 30.5666 49.9678 30.5666C52.4169 30.5666 54.6471 29.472 55.9336 27.6383C56.2767 27.1495 56.8368 26.8582 57.4342 26.8582C58.0316 26.8582 58.5917 27.1493 58.9347 27.6383C60.221 29.4722 62.4512 30.5668 64.9003 30.5668Z" fill="#F2EBD9"/>
<path d="M57.4342 103.77C56.4221 103.77 55.6015 104.589 55.6015 105.601V112.926C55.6015 113.937 56.4221 114.757 57.4342 114.757C58.4463 114.757 59.2668 113.937 59.2668 112.926V105.601C59.2668 104.589 58.4463 103.77 57.4342 103.77Z" fill="#082947"/>
<path d="M96.2988 42.8349L108.188 30.955C106.705 30.684 105.199 30.5438 103.682 30.5438C97.0384 30.5438 90.7933 33.128 86.0972 37.8208C80.2467 43.6668 77.7448 51.8996 79.2238 59.8969L91.1154 48.0145C91.8311 47.2994 92.9913 47.2992 93.707 48.0145L96.2988 45.4247C95.5831 44.7093 95.5831 43.5501 96.2988 42.8349Z" fill="#98D9D5"/>
<path d="M97.5948 45.9609C97.1259 45.9609 96.6567 45.7822 96.299 45.4245L93.7072 48.014C94.4231 48.7292 94.4231 49.8887 93.7072 50.6039L81.8181 62.4838C83.3006 62.755 84.8067 62.8949 86.3237 62.8949C92.9673 62.8949 99.2126 60.3107 103.909 55.6182C109.759 49.7723 112.261 41.5391 110.782 33.5419L98.8906 45.4245C98.5326 45.7822 98.0637 45.9609 97.5948 45.9609Z" fill="#6DA8D6"/>
<path d="M113.536 29.45C113.533 29.4415 113.531 29.4332 113.528 29.4249C113.526 29.4188 113.524 29.4124 113.522 29.4063C113.519 29.3968 113.515 29.3882 113.512 29.3787C113.494 29.3257 113.474 29.2735 113.451 29.222C113.444 29.2051 113.436 29.1885 113.428 29.1719C113.406 29.126 113.382 29.0808 113.356 29.0366C113.347 29.02 113.337 29.0034 113.327 28.9873C113.3 28.9431 113.269 28.9004 113.238 28.8582C113.228 28.845 113.219 28.8311 113.208 28.8181C113.166 28.7649 113.12 28.7131 113.071 28.6641C113.022 28.6147 112.97 28.5696 112.917 28.5271C112.904 28.5171 112.891 28.508 112.878 28.4985C112.835 28.4663 112.792 28.4358 112.747 28.4077C112.732 28.3977 112.715 28.3886 112.699 28.3794C112.654 28.3532 112.609 28.3288 112.563 28.3068C112.546 28.299 112.53 28.2915 112.513 28.2841C112.461 28.2612 112.408 28.2409 112.355 28.2231C112.346 28.2202 112.337 28.2158 112.328 28.2128C112.323 28.2111 112.317 28.2097 112.312 28.2077C112.302 28.2048 112.292 28.2019 112.282 28.1989C109.5 27.3241 106.607 26.8797 103.682 26.8797C96.0596 26.8797 88.8941 29.8451 83.5054 35.2293C76.2067 42.5224 73.4472 53.0519 76.1661 62.9504L71.4841 67.6285V31.1306C71.4841 31.1257 71.4834 31.121 71.4834 31.1164C71.4832 31.0935 71.4812 31.0705 71.48 31.0478C71.4702 30.8344 71.4255 30.6239 71.3431 30.4262L64.2174 13.3376C64.2147 13.331 64.212 13.3244 64.2091 13.3178L59.1256 1.1268C58.841 0.444374 58.1739 0 57.434 0C56.6941 0 56.027 0.444374 55.7424 1.1268L50.6589 13.3178C50.6562 13.3244 50.6535 13.331 50.6506 13.3376L43.5249 30.4262C43.4425 30.6235 43.3978 30.8334 43.388 31.0466C43.3868 31.07 43.3849 31.0932 43.3846 31.1169C43.3846 31.1215 43.3839 31.1262 43.3839 31.1306V89.6038L38.7019 84.9254C41.4208 75.0271 38.6611 64.4974 31.3626 57.2046C25.9742 51.8203 18.8086 48.855 11.1857 48.855C8.26104 48.855 5.36793 49.2994 2.58601 50.1742C2.57624 50.1771 2.56646 50.1798 2.55644 50.183C2.55082 50.1847 2.5452 50.1861 2.53958 50.1881C2.53054 50.191 2.52223 50.1952 2.51319 50.1984C2.45968 50.2162 2.40666 50.2364 2.35461 50.2594C2.33799 50.2667 2.32187 50.2745 2.3055 50.2821C2.25907 50.3041 2.21362 50.3282 2.16866 50.3546C2.15253 50.3641 2.13641 50.3732 2.12052 50.3829C2.07581 50.411 2.03256 50.4413 1.99004 50.4735C1.97709 50.4833 1.96365 50.4921 1.95094 50.5023C1.89768 50.5448 1.84587 50.59 1.79652 50.6393C1.74716 50.6886 1.7022 50.7404 1.65968 50.7934C1.64942 50.8063 1.64013 50.8202 1.63011 50.8334C1.59835 50.8757 1.56805 50.9184 1.54044 50.9626C1.53017 50.9787 1.52089 50.9953 1.51136 51.0119C1.48546 51.0563 1.46151 51.1013 1.43952 51.1472C1.43146 51.1638 1.42364 51.1806 1.41606 51.1975C1.39334 51.249 1.37355 51.301 1.35595 51.354C1.35278 51.3635 1.34838 51.372 1.3452 51.3816C1.34325 51.3877 1.34154 51.3938 1.33958 51.4001C1.33714 51.4084 1.33445 51.4167 1.33201 51.4253C-1.87973 61.6192 0.813251 72.6343 8.36708 80.1824C13.7557 85.5666 20.9213 88.5319 28.544 88.5319C31.1082 88.5319 33.6483 88.1906 36.1106 87.517L43.3832 94.7839V112.925C43.3832 113.937 44.2037 114.757 45.2158 114.757C46.2279 114.757 47.0484 113.937 47.0484 112.925V33.8547C47.9921 34.1008 48.9734 34.2282 49.9669 34.2282C51.9989 34.2282 53.9386 33.704 55.6007 32.7545V98.2747C55.6007 99.286 56.4212 100.106 57.4333 100.106C58.4454 100.106 59.2659 99.286 59.2659 98.2747V32.7545C60.9277 33.7038 62.8676 34.2282 64.8996 34.2282C65.8934 34.2282 66.8745 34.1008 67.8181 33.8547V112.924C67.8181 113.936 68.6387 114.756 69.6508 114.756C70.6629 114.756 71.4834 113.936 71.4834 112.924V72.8087L78.756 65.5417C81.218 66.2153 83.7581 66.5567 86.3225 66.5567C93.945 66.5567 101.111 63.5911 106.499 58.2071C114.054 50.6591 116.747 39.644 113.536 29.45ZM10.9596 77.592C5.10917 71.7461 2.60727 63.513 4.08632 55.5157L33.0506 84.4576C31.5681 84.7289 30.0619 84.8688 28.545 84.8688C21.9011 84.8688 15.6558 82.2843 10.9596 77.592ZM28.771 59.7944C34.6213 65.6403 37.1234 73.8732 35.6444 81.8705L6.68058 52.9286C8.16305 52.6575 9.66922 52.5174 11.1859 52.5174C17.8298 52.5174 24.0749 55.1016 28.771 59.7944ZM58.9348 27.6376C58.5917 27.1488 58.0317 26.8575 57.4343 26.8575C56.8368 26.8575 56.2768 27.1485 55.9337 27.6376C54.6472 29.471 52.417 30.5658 49.9679 30.5658C49.1503 30.5658 48.3483 30.4389 47.5906 30.1986L53.5652 15.8705H61.303L67.2776 30.1986C66.5199 30.4391 65.718 30.5661 64.9004 30.5661C62.4513 30.5658 60.2211 29.4713 58.9348 27.6376ZM55.0924 12.2081L57.434 6.59236L59.7756 12.2081H55.0924ZM103.909 55.6175C99.2122 60.3101 92.9671 62.8945 86.3235 62.8943C84.8066 62.8943 83.3004 62.7543 81.8179 62.4831L93.707 50.6032C94.4227 49.888 94.4227 48.7285 93.707 48.0136C92.9913 47.2982 91.8309 47.2984 91.1154 48.0136L79.2239 59.896C77.7449 51.8987 80.247 43.6658 86.0972 37.8199C90.7934 33.1273 97.0385 30.5429 103.682 30.5429C105.199 30.5429 106.705 30.683 108.188 30.954L96.2988 42.834C95.5831 43.5491 95.5831 44.7084 96.2988 45.4235C96.6568 45.7812 97.1257 45.96 97.5949 45.96C98.064 45.96 98.5329 45.7812 98.8907 45.4235L110.782 33.5409C112.261 41.5384 109.759 49.7713 103.909 55.6175Z" fill="#082947"/>
<path d="M35.6445 81.8711C37.1236 73.8739 34.6214 65.641 28.7712 59.7951C24.075 55.1025 17.8299 52.5181 11.1861 52.5181C9.66938 52.5181 8.16297 52.6582 6.68074 52.9292L35.6445 81.8711Z" fill="#98D9D5"/>
<path d="M4.08625 55.5166C2.6072 63.5139 5.1091 71.747 10.9596 77.5929C15.6557 82.2855 21.9011 84.8697 28.5449 84.8697C30.0619 84.8697 31.568 84.7298 33.0505 84.4585L4.08625 55.5166Z" fill="#6DA8D6"/>
</svg>
