<svg width="115" height="83" viewBox="0 0 115 83" fill="none" xmlns="http://www.w3.org/2000/svg">
<path d="M98.9287 69.0977H15.8498V78.8641H98.9287V69.0977Z" fill="#F2EBD9"/>
<path d="M15.8498 31.9851V48.9543C15.8498 49.9639 16.6718 50.7855 17.6824 50.7855H97.0961C98.1067 50.7855 98.9287 49.9639 98.9287 48.9543V31.9851H15.8498ZM83.2427 45.6582C82.2306 45.6582 81.4101 44.8383 81.4101 43.8269C81.4101 42.8156 82.2306 41.9957 83.2427 41.9957C84.2548 41.9957 85.0753 42.8156 85.0753 43.8269C85.0753 44.8383 84.2548 45.6582 83.2427 45.6582ZM90.5732 40.7749C89.5611 40.7749 88.7406 39.955 88.7406 38.9437C88.7406 37.9324 89.5611 37.1125 90.5732 37.1125C91.5853 37.1125 92.4058 37.9324 92.4058 38.9437C92.4058 39.955 91.5853 40.7749 90.5732 40.7749Z" fill="#6DA8D6"/>
<path d="M105.648 3.66235H9.13014C6.11682 3.66235 3.66525 6.13424 3.66525 9.17234C3.66525 12.1924 6.11682 14.6496 9.13014 14.6496C10.1422 14.6496 10.9628 15.4695 10.9628 16.4808V28.3226H103.816V18.312H38.4521C37.44 18.312 36.6195 17.4921 36.6195 16.4808C36.6195 15.4695 37.44 14.6496 38.4521 14.6496H105.648C108.662 14.6496 111.113 12.1926 111.113 9.17234C111.113 6.13424 108.662 3.66235 105.648 3.66235ZM31.1216 18.312H16.4606C15.4485 18.312 14.628 17.4921 14.628 16.4808C14.628 15.4695 15.4485 14.6496 16.4606 14.6496H31.1216C32.1337 14.6496 32.9543 15.4695 32.9543 16.4808C32.9543 17.4921 32.1337 18.312 31.1216 18.312Z" fill="#FFCC75"/>
<path d="M105.648 0H9.13013C4.09579 0 0 4.11485 0 9.17241C0 13.5839 3.13819 17.2754 7.29751 18.127V30.1539C7.29751 31.1652 8.11804 31.9851 9.13013 31.9851H12.1845V48.9543C12.1845 51.9834 14.6507 54.448 17.6824 54.448H97.0961C100.128 54.448 102.594 51.9834 102.594 48.9543V31.9851H105.648C106.66 31.9851 107.481 31.1652 107.481 30.1539V18.127C111.64 17.2754 114.778 13.5839 114.778 9.17241C114.778 4.11485 110.683 0 105.648 0ZM105.648 14.6497H38.4521C37.44 14.6497 36.6195 15.4696 36.6195 16.4809C36.6195 17.4922 37.44 18.3121 38.4521 18.3121H103.816V28.3227H10.9628V16.4809C10.9628 15.4696 10.1422 14.6497 9.13013 14.6497C6.11681 14.6497 3.66525 12.1927 3.66525 9.17241C3.66525 6.13407 6.11681 3.66242 9.13013 3.66242H105.648C108.662 3.66242 111.113 6.13431 111.113 9.17241C111.113 12.1927 108.662 14.6497 105.648 14.6497ZM97.0961 50.7856H17.6824C16.6717 50.7856 15.8498 49.964 15.8498 48.9543V31.9851H98.9287V48.9543C98.9287 49.964 98.1065 50.7856 97.0961 50.7856Z" fill="#082947"/>
<path d="M31.1216 14.6497H16.4606C15.4485 14.6497 14.628 15.4696 14.628 16.4809C14.628 17.4922 15.4485 18.3121 16.4606 18.3121H31.1216C32.1337 18.3121 32.9543 17.4922 32.9543 16.4809C32.9543 15.4696 32.1337 14.6497 31.1216 14.6497Z" fill="#082947"/>
<path d="M100.761 65.4353H14.0171C13.005 65.4353 12.1845 66.2552 12.1845 67.2665V80.6954C12.1845 81.7067 13.005 82.5266 14.0171 82.5266H100.761C101.773 82.5266 102.594 81.7067 102.594 80.6954V67.2665C102.594 66.2552 101.773 65.4353 100.761 65.4353ZM98.9287 78.8642H15.8498V69.0977H98.9287V78.8642Z" fill="#082947"/>
<path d="M83.2427 45.6583C84.2548 45.6583 85.0753 44.8384 85.0753 43.8271C85.0753 42.8157 84.2548 41.9958 83.2427 41.9958C82.2305 41.9958 81.41 42.8157 81.41 43.8271C81.41 44.8384 82.2305 45.6583 83.2427 45.6583Z" fill="#082947"/>
<path d="M90.5732 40.775C91.5853 40.775 92.4058 39.9551 92.4058 38.9438C92.4058 37.9324 91.5853 37.1125 90.5732 37.1125C89.561 37.1125 88.7405 37.9324 88.7405 38.9438C88.7405 39.9551 89.561 40.775 90.5732 40.775Z" fill="#082947"/>
</svg>
